<svg width="24" height="24" viewBox="0 0 24 24" fill="none" xmlns="http://www.w3.org/2000/svg">
<path d="M12.0039 22.0039C6.48107 22.0039 2.00391 17.5268 2.00391 12.0039C2.00391 6.48106 6.48107 2.00391 12.0039 2.00391C17.5267 2.00391 22.0039 6.48106 22.0039 12.0039C22.0039 17.5268 17.5267 22.0039 12.0039 22.0039ZM8.50391 14.0039V16.0039H11.0039V18.0039H13.0039V16.0039H14.0039C15.3846 16.0039 16.5039 14.8847 16.5039 13.5039C16.5039 12.1232 15.3846 11.0039 14.0039 11.0039H10.0039C9.72777 11.0039 9.50391 10.7801 9.50391 10.5039C9.50391 10.2278 9.72777 10.0039 10.0039 10.0039H15.5039V8.00391H13.0039V6.00391H11.0039V8.00391H10.0039C8.6232 8.00391 7.50391 9.12319 7.50391 10.5039C7.50391 11.8847 8.6232 13.0039 10.0039 13.0039H14.0039C14.28 13.0039 14.5039 13.2278 14.5039 13.5039C14.5039 13.7801 14.28 14.0039 14.0039 14.0039H8.50391Z" fill="#64748B"/>
</svg>
