<svg width="24" height="24" viewBox="0 0 24 24" fill="none" xmlns="http://www.w3.org/2000/svg">
<path d="M8.68735 4.00106L11.294 1.39446C11.6845 1.00393 12.3177 1.00393 12.7082 1.39446L15.3148 4.00106H19.0011C19.5534 4.00106 20.0011 4.44878 20.0011 5.00106V8.68735L22.6077 11.294C22.9982 11.6845 22.9982 12.3177 22.6077 12.7082L20.0011 15.3148V19.0011C20.0011 19.5534 19.5534 20.0011 19.0011 20.0011H15.3148L12.7082 22.6077C12.3177 22.9982 11.6845 22.9982 11.294 22.6077L8.68735 20.0011H5.00106C4.44878 20.0011 4.00106 19.5534 4.00106 19.0011V15.3148L1.39446 12.7082C1.00393 12.3177 1.00393 11.6845 1.39446 11.294L4.00106 8.68735V5.00106C4.00106 4.44878 4.44878 4.00106 5.00106 4.00106H8.68735ZM12.0011 15.0011C13.6579 15.0011 15.0011 13.6579 15.0011 12.0011C15.0011 10.3442 13.6579 9.00106 12.0011 9.00106C10.3442 9.00106 9.00106 10.3442 9.00106 12.0011C9.00106 13.6579 10.3442 15.0011 12.0011 15.0011Z" fill="#64748B"/>
</svg>
