<svg width="24" height="24" viewBox="0 0 24 24" fill="none" xmlns="http://www.w3.org/2000/svg">
<path d="M22.0039 6H15.0039C11.6902 6 9.00391 8.68629 9.00391 12C9.00391 15.3137 11.6902 18 15.0039 18H22.0039V20C22.0039 20.5523 21.5562 21 21.0039 21H3.00391C2.45163 21 2.00391 20.5523 2.00391 20V4C2.00391 3.44771 2.45163 3 3.00391 3H21.0039C21.5562 3 22.0039 3.44771 22.0039 4V6ZM15.0039 8H23.0039V16H15.0039C12.7947 16 11.0039 14.2091 11.0039 12C11.0039 9.79086 12.7947 8 15.0039 8ZM15.0039 11V13H18.0039V11H15.0039Z" fill="#64748B"/>
</svg>
