<svg xmlns="http://www.w3.org/2000/svg" width="77" height="77" viewBox="0 0 77 77" fill="none">
<g clip-path="url(#clip0_3022_597)">
<path fill-rule="evenodd" clip-rule="evenodd" d="M46.5016 47.7524C44.5766 49.5875 42.0292 50.7682 39.1994 50.9479V47.438C41.7212 47.4508 44.1659 47.5599 46.5016 47.7524ZM37.7043 50.9415C34.881 50.7618 32.3272 49.5811 30.4022 47.746C32.7378 47.5535 35.1826 47.4444 37.7043 47.4315V50.9415ZM29.1637 46.36C27.8227 44.5954 26.9757 42.4394 26.8217 40.0909H37.7043V45.9429C34.7398 45.9621 31.8716 46.1033 29.1637 46.36ZM26.8217 38.5958C26.9692 36.2473 27.8162 34.0913 29.1637 32.3267C31.878 32.5834 34.7462 32.7245 37.7107 32.7502V38.6022H26.8217V38.5958ZM30.4086 30.9343C32.3336 29.0991 34.881 27.9185 37.7107 27.7388V31.2487C35.189 31.2295 32.7442 31.1204 30.4086 30.9343ZM39.2058 27.7388C42.0292 27.9185 44.583 29.0991 46.508 30.9343C44.1723 31.1268 41.7276 31.2359 39.2058 31.2487V27.7388ZM54.0027 31.5054C55.0935 33.6485 55.748 36.0548 55.8571 38.5958H39.2058V32.7438C44.5702 32.7053 49.6072 32.2625 54.0027 31.5054ZM55.8571 40.0909C55.748 42.6319 55.0935 45.0381 54.0027 47.1813C49.6072 46.4241 44.5702 45.975 39.2058 45.9365V40.0845H55.8571V40.0909ZM47.0213 22.5156C53.8358 23.2086 59.9637 24.7037 64.8853 26.7763C62.9411 27.7388 60.4065 28.5858 57.4356 29.2852C56.5886 29.4841 55.7095 29.6702 54.8047 29.8435C52.9439 26.6993 50.2746 24.1775 47.0213 22.5156ZM66.5986 27.5399C72.7201 30.453 76.5957 34.3223 77 38.5894H57.3586C57.2559 35.9585 56.6142 33.4625 55.5362 31.2166C56.3062 31.069 57.057 30.9022 57.7757 30.7354C61.3818 29.8948 64.3977 28.804 66.5986 27.5399ZM77 40.0909C76.5957 44.358 72.7137 48.2272 66.5986 51.1404C64.4041 49.8827 61.3882 48.7919 57.7757 47.9449C57.0506 47.778 56.3062 47.6112 55.5362 47.4636C56.6142 45.2178 57.2559 42.7217 57.3586 40.0909H77ZM64.8853 51.9104C59.9702 53.9765 53.8422 55.478 47.0213 56.171C50.281 54.5091 52.9439 51.9938 54.7983 48.8496C55.7095 49.0229 56.5886 49.209 57.4292 49.4079C60.4065 50.0945 62.9411 50.9479 64.8853 51.9104ZM29.8888 56.1646C23.0743 55.4716 16.94 53.9765 12.0248 51.904C13.9691 50.9415 16.5037 50.0945 19.4746 49.395C20.3216 49.1961 21.2007 49.01 22.1054 48.8368C23.9919 52.013 26.6099 54.4899 29.8888 56.1646ZM10.3116 51.1404C4.19649 48.2272 0.320823 44.358 -0.0898438 40.0909H19.5516C19.6671 42.664 20.2574 45.1408 21.3739 47.4636C20.6039 47.6112 19.8532 47.778 19.1345 47.9449C15.5283 48.7919 12.5125 49.8827 10.3116 51.1404ZM-0.0898438 38.5958C0.314406 34.3287 4.19649 30.4595 10.3116 27.5463C12.5061 28.804 15.5219 29.8948 19.1345 30.7418C19.8596 30.9086 20.6039 31.069 21.3739 31.223C20.251 33.5459 19.6671 36.0227 19.5516 38.5958H-0.0898438ZM12.0248 26.7763C16.94 24.7101 23.0743 23.2086 29.8888 22.5156C26.6612 24.1583 23.947 26.6865 22.1118 29.837C21.2007 29.6638 20.3216 29.4777 19.481 29.2852C16.5037 28.5858 13.9691 27.7388 12.0248 26.7763Z" fill="white"/>
<path fill-rule="evenodd" clip-rule="evenodd" d="M2.85518 65.9115C2.14293 65.9115 1.5526 65.6741 1.08418 65.1993C0.615766 64.7245 0.384766 64.1405 0.384766 63.4411C0.384766 62.7417 0.615766 62.1514 1.08418 61.6765C1.5526 61.2081 2.14293 60.9707 2.85518 60.9707C3.2851 60.9707 3.68293 61.0734 4.04868 61.2659C4.40802 61.4712 4.69677 61.7407 4.89568 62.0872L4.08718 62.562C3.97168 62.3503 3.79843 62.1835 3.58668 62.0615C3.36852 61.946 3.12468 61.8819 2.85518 61.8819C2.39318 61.8819 2.02102 62.023 1.73868 62.3182C1.45635 62.607 1.30877 62.9791 1.30877 63.4411C1.30877 63.8967 1.44993 64.2689 1.73868 64.5576C2.0146 64.8528 2.39318 64.994 2.85518 64.994C3.12468 64.994 3.36852 64.9298 3.5931 64.8143C3.81127 64.6988 3.97168 64.5384 4.08718 64.3266L4.89568 64.795C4.69677 65.1415 4.40802 65.411 4.04868 65.61C3.68293 65.8089 3.2851 65.9115 2.85518 65.9115ZM6.46135 64.9234H8.46335V65.8217H5.52452V61.0734H8.43127V61.9653H6.46135V62.9791H8.25802V63.8582H6.46135V64.9234ZM11.723 65.8217L10.7669 64.1726H10.0547V65.8217H9.11785V61.0734H11.0172C11.4599 61.0734 11.8321 61.2274 12.1337 61.5354C12.4417 61.8434 12.5957 62.2155 12.5957 62.6519C12.5957 62.947 12.5123 63.2165 12.3454 63.4668C12.1722 63.717 11.954 63.9095 11.6781 64.0379L12.7304 65.8281H11.723V65.8217ZM10.0547 61.946V63.3513H11.0172C11.1968 63.3513 11.3444 63.2807 11.4728 63.1395C11.6011 63.0048 11.6653 62.838 11.6653 62.6455C11.6653 62.4465 11.6011 62.2861 11.4728 62.1514C11.3444 62.0166 11.1968 61.9525 11.0172 61.9525H10.0547V61.946ZM16.4264 61.0734V61.9653H15.1431V65.8217H14.2063V61.9653H12.9293V61.0734H16.4264ZM16.9462 61.0734H17.883V65.8217H16.9462V61.0734ZM21.6047 61.9653H19.7053V63.0946H21.5534V63.9865H19.7053V65.8217H18.7685V61.0734H21.6047V61.9653ZM22.2849 61.0734H23.2217V65.8217H22.2849V61.0734ZM25.0376 64.9234H27.0396V65.8217H24.1008V61.0734H27.0075V61.9653H25.0376V62.9791H26.8343V63.8582H25.0376V64.9234ZM29.587 61.0734C30.2415 61.0734 30.7805 61.3044 31.2233 61.76C31.6596 62.2155 31.8778 62.7802 31.8778 63.4475C31.8778 64.1213 31.6596 64.6795 31.2233 65.1351C30.7805 65.5907 30.2415 65.8217 29.587 65.8217H27.7005V61.0734H29.587ZM29.587 64.9234C29.9977 64.9234 30.3314 64.7886 30.588 64.5127C30.8447 64.2432 30.973 63.8903 30.973 63.4475C30.973 63.0048 30.8447 62.6583 30.588 62.376C30.3314 62.1065 29.9977 61.9653 29.587 61.9653H28.6374V64.9234H29.587ZM38.9489 63.4411C38.9489 64.0571 38.75 64.5897 38.365 65.0453L38.8527 65.5522L38.1854 66.1425L37.672 65.61C37.3063 65.8089 36.902 65.9115 36.4785 65.9115C35.7919 65.9115 35.2144 65.6741 34.7332 65.1929C34.2519 64.718 34.0145 64.1341 34.0145 63.4411C34.0145 62.7481 34.2519 62.1642 34.7332 61.683C35.2144 61.2081 35.7919 60.9707 36.4785 60.9707C37.1651 60.9707 37.749 61.2081 38.2303 61.683C38.7115 62.1706 38.9489 62.7545 38.9489 63.4411ZM36.4785 65.0004C36.6582 65.0004 36.8314 64.9747 37.0047 64.9105L36.2219 64.0956L36.8892 63.5053L37.7234 64.3715C37.9159 64.0956 38.0057 63.7876 38.0057 63.4411C38.0057 62.9855 37.8581 62.6134 37.5629 62.3246C37.2678 62.0295 36.902 61.8819 36.4721 61.8819C36.0358 61.8819 35.67 62.0295 35.3813 62.3246C35.0861 62.6198 34.9385 62.992 34.9385 63.4411C34.9385 63.8903 35.0861 64.2625 35.3813 64.5576C35.6764 64.8464 36.0422 65.0004 36.4785 65.0004ZM44.2876 61.0734V65.8217H43.3572V62.7417L42.0225 64.949H41.9134L40.5788 62.7481V65.8217H39.6419V61.0734H40.6044L41.9648 63.3192L43.3251 61.0734H44.2876ZM46.7901 65.9115C46.3217 65.9115 45.9239 65.8025 45.603 65.5971C45.2822 65.3854 45.0512 65.103 44.9229 64.7437L45.7249 64.2753C45.9046 64.7565 46.2704 65.0004 46.8158 65.0004C47.0789 65.0004 47.2714 64.9555 47.3933 64.8592C47.5152 64.763 47.5794 64.641 47.5794 64.4999C47.5794 64.333 47.5024 64.2047 47.3548 64.1085C47.2072 64.0186 46.9441 63.9224 46.5527 63.8133C46.3409 63.7491 46.1613 63.685 46.0137 63.6208C45.8661 63.563 45.7185 63.4732 45.5709 63.3641C45.4234 63.2615 45.3078 63.1267 45.2309 62.9663C45.1539 62.8059 45.1154 62.6134 45.1154 62.3952C45.1154 61.9653 45.2694 61.6252 45.5774 61.3621C45.8789 61.1119 46.2511 60.9835 46.6746 60.9835C47.0596 60.9835 47.3997 61.0798 47.6949 61.2595C47.99 61.452 48.2082 61.715 48.375 62.0487L47.5858 62.5043C47.3933 62.1 47.0917 61.8947 46.6746 61.8947C46.4757 61.8947 46.3281 61.9332 46.219 62.023C46.1035 62.1129 46.0458 62.2284 46.0458 62.3695C46.0458 62.5171 46.1099 62.639 46.2383 62.7289C46.3602 62.8251 46.5976 62.9278 46.9505 63.0369C47.0917 63.0818 47.2072 63.1203 47.2842 63.1395C47.3548 63.1716 47.4574 63.2101 47.5858 63.255C47.7141 63.3128 47.8104 63.3577 47.8809 63.4026C47.9515 63.4475 48.0285 63.5117 48.1184 63.5823C48.2082 63.6593 48.2788 63.7363 48.3301 63.8197C48.375 63.9031 48.4199 63.993 48.452 64.1085C48.4841 64.224 48.4969 64.3523 48.4969 64.487C48.4969 64.9298 48.3365 65.2763 48.0221 65.533C47.7205 65.7832 47.3034 65.9115 46.7901 65.9115ZM49.1258 64.1919V63.3513H51.6732V64.1919H49.1258ZM54.2463 65.9115C53.6559 65.9115 53.1875 65.687 52.8539 65.2378C52.5138 64.7886 52.3469 64.1919 52.3469 63.4475C52.3469 62.7032 52.5202 62.1065 52.8539 61.6509C53.1875 61.2017 53.6559 60.9771 54.2463 60.9771C54.843 60.9771 55.3114 61.2017 55.6451 61.6509C55.9788 62.1065 56.1456 62.7032 56.1456 63.4475C56.1456 64.1919 55.9788 64.7886 55.6451 65.2378C55.3114 65.687 54.8494 65.9115 54.2463 65.9115ZM53.5276 64.5961C53.688 64.8592 53.9254 64.994 54.2463 64.994C54.5671 64.994 54.8045 64.8592 54.9714 64.5961C55.1318 64.333 55.2152 63.9416 55.2152 63.4411C55.2152 62.9342 55.1318 62.5492 54.9714 62.2797C54.8045 62.0166 54.5607 61.8819 54.2463 61.8819C53.9319 61.8819 53.688 62.0166 53.5276 62.2797C53.3672 62.5428 53.2838 62.9342 53.2838 63.4411C53.2838 63.9545 53.3672 64.333 53.5276 64.5961ZM60.2266 64.1405V65.0068H59.7197V65.8153H58.7764V65.0068H56.5306V64.1405L58.1091 61.067H59.1101L57.538 64.1405H58.77V63.0112H59.7133V64.1405H60.2266ZM62.4596 65.9115C61.8693 65.9115 61.4009 65.687 61.0672 65.2378C60.7271 64.7886 60.5603 64.1919 60.5603 63.4475C60.5603 62.7032 60.7335 62.1065 61.0672 61.6509C61.4009 61.2017 61.8693 60.9771 62.4596 60.9771C63.0564 60.9771 63.5248 61.2017 63.8584 61.6509C64.1921 62.1065 64.3589 62.7032 64.3589 63.4475C64.3589 64.1919 64.1921 64.7886 63.8584 65.2378C63.5248 65.687 63.0564 65.9115 62.4596 65.9115ZM61.7409 64.5961C61.9014 64.8592 62.1388 64.994 62.4596 64.994C62.7804 64.994 63.0179 64.8592 63.1847 64.5961C63.3451 64.333 63.4285 63.9416 63.4285 63.4411C63.4285 62.9342 63.3451 62.5492 63.1847 62.2797C63.0179 62.0166 62.774 61.8819 62.4596 61.8819C62.1388 61.8819 61.9014 62.0166 61.7409 62.2797C61.5805 62.5428 61.4971 62.9342 61.4971 63.4411C61.4971 63.9545 61.5805 64.333 61.7409 64.5961ZM68.4399 64.1405V65.0068H67.933V65.8153H66.9898V65.0068H64.7439V64.1405L66.3224 61.067H67.3234L65.7514 64.1405H66.9834V63.0112H67.9266V64.1405H68.4399ZM75.5753 65.8217L75.2929 64.9683H73.4L73.1177 65.8217H72.1103L73.7722 61.0734H74.9336L76.6019 65.8217H75.5753ZM73.6952 64.0892H74.9978L74.3433 62.1514L73.6952 64.0892Z" fill="white"/>
<path fill-rule="evenodd" clip-rule="evenodd" d="M69.1399 66.4968H68.7549L71.4691 60.3945H71.8541L69.1399 66.4968Z" fill="white"/>
<path fill-rule="evenodd" clip-rule="evenodd" d="M2.32227 11.2748H3.88793V19.2122H2.32227V11.2748ZM8.07802 19.3662C7.29518 19.3662 6.62785 19.1866 6.08885 18.8336C5.55627 18.4807 5.17127 18.0059 4.9531 17.4027L6.29418 16.6199C6.60218 17.422 7.21177 17.8326 8.12293 17.8326C8.56568 17.8326 8.8801 17.7492 9.08543 17.5952C9.29077 17.4348 9.39343 17.2295 9.39343 16.9921C9.39343 16.7097 9.2651 16.4916 9.01485 16.3311C8.7646 16.1836 8.32185 16.0167 7.67377 15.8306C7.32085 15.728 7.01285 15.6125 6.77543 15.5098C6.52518 15.4071 6.27493 15.2596 6.03752 15.0799C5.78727 14.9066 5.59477 14.6821 5.47285 14.4126C5.34452 14.1431 5.28035 13.8222 5.28035 13.4629C5.28035 12.7506 5.54343 12.1731 6.05035 11.7368C6.55727 11.3133 7.17327 11.1016 7.88552 11.1016C8.5336 11.1016 9.09827 11.262 9.58593 11.57C10.0736 11.8908 10.4458 12.3271 10.7217 12.8854L9.40627 13.6426C9.08543 12.9624 8.57852 12.6223 7.88552 12.6223C7.55827 12.6223 7.30802 12.6929 7.12835 12.8405C6.93585 12.9881 6.8396 13.1806 6.8396 13.418C6.8396 13.6682 6.94227 13.8736 7.16043 14.0211C7.36577 14.1816 7.7636 14.3484 8.35393 14.5345C8.59135 14.6115 8.78385 14.6692 8.91218 14.7013C9.0341 14.7526 9.20735 14.8168 9.4191 14.8938C9.63727 14.9901 9.79768 15.0671 9.9196 15.1441C10.0351 15.2275 10.1698 15.3237 10.3174 15.4521C10.465 15.5804 10.5933 15.7151 10.6703 15.8499C10.7538 15.9846 10.8179 16.1451 10.8757 16.3376C10.9334 16.5301 10.9591 16.7482 10.9591 16.9728C10.9591 17.7107 10.696 18.2882 10.1634 18.7181C9.63085 19.1545 8.93143 19.3662 8.07802 19.3662ZM18.6719 18.1663C17.8698 18.9748 16.8881 19.3662 15.7395 19.3662C14.5909 19.3662 13.6156 18.9684 12.8199 18.1663C12.0178 17.3706 11.6136 16.3953 11.6136 15.2403C11.6136 14.0853 12.0114 13.11 12.8199 12.3079C13.6156 11.5122 14.5909 11.1144 15.7395 11.1144C16.8881 11.1144 17.8634 11.5122 18.6719 12.3079C19.4804 13.11 19.8783 14.0853 19.8783 15.2403C19.8783 16.3953 19.4804 17.3706 18.6719 18.1663ZM13.9172 17.1011C14.4048 17.5888 15.0209 17.8391 15.7459 17.8391C16.471 17.8391 17.087 17.5888 17.5747 17.1011C18.0623 16.6135 18.3126 16.0039 18.3126 15.2403C18.3126 14.4831 18.0623 13.8607 17.5747 13.3666C17.087 12.879 16.471 12.6287 15.7459 12.6287C15.0209 12.6287 14.4048 12.879 13.9172 13.3666C13.4295 13.8543 13.1793 14.4767 13.1793 15.2403C13.1793 16.0039 13.4231 16.6135 13.9172 17.1011ZM32.9362 19.3662C31.948 19.3662 31.1652 18.9941 30.6069 18.2369C30.0423 17.4861 29.7535 16.4851 29.7535 15.2403C29.7535 13.9955 30.0423 12.9945 30.6069 12.2373C31.1652 11.493 31.948 11.1144 32.9362 11.1144C33.9372 11.1144 34.72 11.493 35.2783 12.2373C35.8365 13.0009 36.1189 13.9955 36.1189 15.2403C36.1189 16.4851 35.8365 17.4861 35.2783 18.2369C34.72 18.9941 33.9372 19.3662 32.9362 19.3662ZM31.7363 17.1653C32.0122 17.6081 32.4036 17.8326 32.9426 17.8326C33.4816 17.8326 33.8794 17.6081 34.1618 17.1653C34.4313 16.7226 34.5724 16.0745 34.5724 15.2339C34.5724 14.3869 34.4313 13.7388 34.1618 13.2961C33.8794 12.8533 33.4816 12.6287 32.9426 12.6287C32.4036 12.6287 32.0122 12.8533 31.7363 13.2961C31.4668 13.7388 31.3256 14.3869 31.3256 15.2339C31.3256 16.0937 31.4668 16.7226 31.7363 17.1653ZM40.0972 19.3662C39.109 19.3662 38.3262 18.9941 37.7679 18.2369C37.2033 17.4861 36.9145 16.4851 36.9145 15.2403C36.9145 13.9955 37.2033 12.9945 37.7679 12.2373C38.3262 11.493 39.109 11.1144 40.0972 11.1144C41.0982 11.1144 41.881 11.493 42.4393 12.2373C42.9975 13.0009 43.2798 13.9955 43.2798 15.2403C43.2798 16.4851 42.9975 17.4861 42.4393 18.2369C41.881 18.9941 41.0982 19.3662 40.0972 19.3662ZM38.8909 17.1653C39.1668 17.6081 39.5582 17.8326 40.0972 17.8326C40.6298 17.8326 41.0276 17.6081 41.3163 17.1653C41.5858 16.7226 41.727 16.0745 41.727 15.2339C41.727 14.3869 41.5858 13.7388 41.3163 13.2961C41.034 12.8533 40.6362 12.6287 40.0972 12.6287C39.5646 12.6287 39.1668 12.8533 38.8909 13.2961C38.6213 13.7388 38.4802 14.3869 38.4802 15.2339C38.4802 16.0937 38.6213 16.7226 38.8909 17.1653ZM50.274 15.0157C50.0815 15.2082 49.8569 15.2981 49.5938 15.2981C49.3308 15.2981 49.1062 15.2082 48.9137 15.0157C48.7212 14.8232 48.6313 14.5922 48.6313 14.3356C48.6313 14.0725 48.7212 13.8479 48.9137 13.6554C49.1062 13.4629 49.3372 13.3731 49.5938 13.3731C49.8505 13.3731 50.0815 13.4629 50.274 13.6554C50.4665 13.8479 50.5628 14.0789 50.5628 14.3356C50.5628 14.5922 50.4665 14.8232 50.274 15.0157ZM50.274 19.0775C50.0815 19.27 49.8569 19.3598 49.5938 19.3598C49.3308 19.3598 49.1062 19.27 48.9137 19.0775C48.7212 18.885 48.6313 18.654 48.6313 18.3973C48.6313 18.1342 48.7212 17.9096 48.9137 17.7171C49.1062 17.5246 49.3372 17.4348 49.5938 17.4348C49.8505 17.4348 50.0815 17.5246 50.274 17.7171C50.4665 17.9096 50.5628 18.1406 50.5628 18.3973C50.5628 18.654 50.4665 18.885 50.274 19.0775ZM51.4162 19.2122V18.0444L54.1304 15.2531C54.7336 14.6179 55.0416 14.0853 55.0416 13.6618C55.0416 13.3538 54.9453 13.1036 54.7528 12.9111C54.5603 12.7186 54.3101 12.6287 54.0085 12.6287C53.4053 12.6287 52.9626 12.9367 52.6803 13.5591L51.3648 12.7891C51.6151 12.2437 51.9744 11.8266 52.4428 11.5443C52.9049 11.262 53.431 11.1144 53.9893 11.1144C54.7015 11.1144 55.3303 11.3454 55.8373 11.7817C56.3442 12.2373 56.6073 12.8469 56.6073 13.6105C56.6073 14.4382 56.1773 15.2788 55.3047 16.1515L53.7454 17.7107H56.7356V19.2186H51.4162V19.2122ZM60.7203 19.3662C59.7322 19.3662 58.9493 18.9941 58.3911 18.2369C57.8264 17.4861 57.5377 16.4851 57.5377 15.2403C57.5377 13.9955 57.8264 12.9945 58.3911 12.2373C58.9493 11.493 59.7322 11.1144 60.7203 11.1144C61.7213 11.1144 62.5042 11.493 63.0624 12.2373C63.6207 13.0009 63.903 13.9955 63.903 15.2403C63.903 16.4851 63.6207 17.4861 63.0624 18.2369C62.5042 18.9941 61.7213 19.3662 60.7203 19.3662ZM59.514 17.1653C59.7899 17.6081 60.1813 17.8326 60.7203 17.8326C61.2529 17.8326 61.6508 17.6081 61.9395 17.1653C62.209 16.7226 62.3502 16.0745 62.3502 15.2339C62.3502 14.3869 62.209 13.7388 61.9395 13.2961C61.6572 12.8533 61.2593 12.6287 60.7203 12.6287C60.1878 12.6287 59.7899 12.8533 59.514 13.2961C59.2445 13.7388 59.1033 14.3869 59.1033 15.2339C59.1098 16.0937 59.2445 16.7226 59.514 17.1653ZM71.8789 14.1623C72.6361 14.1623 73.2842 14.3933 73.8103 14.8425C74.3301 15.3045 74.5932 15.9397 74.5932 16.7611C74.5932 17.576 74.3173 18.2112 73.7783 18.6796C73.22 19.1481 72.5527 19.3726 71.757 19.3726C71.1089 19.3726 70.5443 19.2251 70.0566 18.9427C69.5689 18.6604 69.2032 18.2305 68.985 17.6722L70.3261 16.8894C70.5186 17.5246 70.9998 17.8391 71.757 17.8391C72.1548 17.8391 72.4693 17.7364 72.7003 17.5439C72.9184 17.3514 73.0275 17.0883 73.0275 16.7611C73.0275 16.4338 72.912 16.1707 72.7003 15.9782C72.4821 15.7857 72.1805 15.6831 71.8019 15.6831H69.3957L69.7165 11.2748H74.2274V12.7378H71.1731L71.0704 14.1623H71.8789Z" fill="white"/>
<path fill-rule="evenodd" clip-rule="evenodd" d="M29.0995 13.866C29.0995 14.482 28.9391 15.0146 28.6247 15.4766H28.6311L26.1542 19.2111H24.364L26.135 16.6252C25.3072 16.6124 24.6335 16.3364 24.1266 15.8295C23.6004 15.3162 23.3438 14.6745 23.3438 13.866C23.3438 13.0639 23.6197 12.3966 24.1522 11.8833C24.6848 11.3699 25.365 11.1133 26.2184 11.1133C27.0654 11.1133 27.7712 11.3635 28.3102 11.8769C28.8428 12.3774 29.0995 13.0511 29.0995 13.866ZM24.8966 13.866C24.8966 14.2639 25.0249 14.5719 25.2816 14.8093C25.5318 15.0467 25.8398 15.1622 26.212 15.1622C26.597 15.1622 26.9114 15.0467 27.1681 14.8093C27.4183 14.5719 27.5402 14.2639 27.5402 13.866C27.5402 13.4682 27.4183 13.1666 27.1681 12.9292C26.9178 12.6982 26.6034 12.5891 26.212 12.5891C25.8334 12.5891 25.5318 12.7046 25.2816 12.942C25.0249 13.173 24.8966 13.481 24.8966 13.866ZM45.9112 11.2737H47.2715V19.2111H45.7058V12.9292L44.2108 13.3463L43.8258 12.0116L45.9112 11.2737ZM66.5536 11.2737H67.9139V19.2111H66.3483V12.9292L64.8532 13.3463L64.4682 12.0116L66.5536 11.2737Z" fill="white"/>
</g>
<defs>
<clipPath id="clip0_3022_597">
<rect width="77" height="77" fill="white"/>
</clipPath>
</defs>
</svg>