<svg xmlns="http://www.w3.org/2000/svg" width="22" height="22" viewBox="0 0 22 22" fill="none">
<path d="M11.0007 20.1663C5.93804 20.1663 1.83398 16.0622 1.83398 10.9997C1.83398 5.93706 5.93804 1.83301 11.0007 1.83301C16.0632 1.83301 20.1673 5.93706 20.1673 10.9997C20.1673 16.0622 16.0632 20.1663 11.0007 20.1663ZM8.14996 12.0729L8.16155 12.0656C8.69297 13.82 8.95868 14.6972 8.95868 14.6972C9.06159 14.9819 9.20309 15.0326 9.37478 15.0094C9.54638 14.9862 9.6375 14.8933 9.74951 14.7852C9.74951 14.7852 10.1128 14.4346 10.8393 13.7334L13.1777 15.4637C13.6037 15.6991 13.9114 15.5776 14.0171 15.0676L15.5368 7.89805C15.7045 7.23073 15.4103 6.96308 14.8928 7.17492L5.97089 10.6212C5.36222 10.8658 5.36516 11.2064 5.86008 11.3582L8.14996 12.0729Z" fill="white"/>
</svg>