<svg xmlns="http://www.w3.org/2000/svg" width="22" height="22" viewBox="0 0 22 22" fill="none">
<path d="M11.0009 20.1663C5.93828 20.1663 1.83423 16.0622 1.83423 10.9997C1.83423 5.93706 5.93828 1.83301 11.0009 1.83301C16.0635 1.83301 20.1676 5.93706 20.1676 10.9997C20.1676 16.0622 16.0635 20.1663 11.0009 20.1663ZM8.1502 12.0729L8.1618 12.0656C8.69321 13.82 8.95892 14.6972 8.95892 14.6972C9.06183 14.9819 9.20333 15.0326 9.37502 15.0094C9.54662 14.9862 9.63774 14.8933 9.74976 14.7852C9.74976 14.7852 10.113 14.4346 10.8396 13.7334L13.1779 15.4637C13.604 15.6991 13.9116 15.5776 14.0174 15.0676L15.537 7.89805C15.7048 7.23073 15.4105 6.96308 14.8931 7.17492L5.97114 10.6212C5.36246 10.8658 5.3654 11.2064 5.86032 11.3582L8.1502 12.0729Z" fill="#64748B"/>
</svg>