<svg width="15" height="16" viewBox="0 0 15 16" fill="none" xmlns="http://www.w3.org/2000/svg">
<g clip-path="url(#clip0_3014_2512)">
<path d="M14.9993 8.1661C15.0083 7.65049 14.954 7.1357 14.8375 6.63281H7.65234V9.4161H11.87C11.7901 9.90412 11.6103 10.3713 11.3414 10.7894C11.0725 11.2076 10.7201 11.5681 10.3054 11.8494L10.2907 11.9426L12.5627 13.6674L12.72 13.6828C14.1655 12.3745 14.999 10.4494 14.999 8.1661" fill="#4285F4"/>
<path d="M7.65314 15.5011C9.71939 15.5011 11.4541 14.8344 12.7212 13.6844L10.3062 11.8509C9.65999 12.2927 8.79265 12.6011 7.65314 12.6011C6.68537 12.5955 5.74395 12.2915 4.96246 11.732C4.18096 11.1726 3.59908 10.3862 3.29935 9.48438L3.20966 9.49187L0.847283 11.2835L0.816406 11.3677C1.45265 12.6103 2.42908 13.655 3.6365 14.385C4.84392 15.115 6.23474 15.5014 7.65344 15.5011" fill="#34A853"/>
<path d="M3.29924 9.48411C3.13185 9.0067 3.04547 8.50563 3.04355 8.00083C3.04664 7.49685 3.12983 6.99642 3.29013 6.51754L3.28586 6.41812L0.894521 4.59766L0.816299 4.63411C0.279572 5.67843 0 6.83146 0 8.00075C0 9.17005 0.279572 10.3231 0.816299 11.3674L3.29924 9.48411Z" fill="#FBBC05"/>
<path d="M7.65344 3.40052C8.75005 3.38383 9.81064 3.78407 10.6126 4.51724L12.7725 2.45052C11.3872 1.17694 9.55276 0.478135 7.65344 0.500522C6.23476 0.500191 4.84395 0.886599 3.63653 1.61654C2.42911 2.34648 1.45267 3.39117 0.816406 4.63381L3.29112 6.51724C3.59379 5.61559 4.17761 4.82978 4.96026 4.27061C5.7429 3.71144 6.6849 3.40711 7.65344 3.40052Z" fill="#EB4335"/>
</g>
<defs>
<clipPath id="clip0_3014_2512">
<rect width="15" height="15" fill="white" transform="translate(0 0.5)"/>
</clipPath>
</defs>
</svg>
