<svg xmlns="http://www.w3.org/2000/svg" width="77" height="77" viewBox="0 0 77 77" fill="none">
<g clip-path="url(#clip0_3022_592)">
<path d="M19.9627 31.8393C18.9425 31.6724 17.749 31.1655 17.7425 30.3249C17.7425 29.9784 18.0249 29.1314 19.4494 29.125C20.9316 29.125 21.323 29.9656 21.323 30.4789H23.6972C23.6972 29.2983 23.3571 28.278 22.6641 27.5914C21.7915 26.9113 20.707 26.5519 19.597 26.584C14.7524 26.6033 14.1877 30.6393 15.8817 32.898C16.2282 33.3921 17.2549 33.899 18.7756 34.2391C19.9691 34.5663 21.5155 35.0925 21.522 36.1962C21.5284 37.2934 20.1552 37.4603 19.6419 37.4603C18.7949 37.4603 18.288 37.2934 17.9414 36.9598C17.6078 36.5876 17.4217 36.1063 17.4345 35.6058L14.7139 35.6187C14.7139 36.9854 15.2272 38.1597 16.0806 38.8463C18.859 41.0408 24.2555 40.2387 24.2362 35.747C24.2234 33.2445 22.4203 32.3269 19.9627 31.8393Z" fill="white"/>
<path d="M49.2161 36.6384L65.3347 29.6122C65.6684 30.7672 65.8417 31.9607 65.8545 33.167C65.816 34.3092 65.7133 35.4449 65.5337 36.5743L49.2161 36.6384ZM64.3594 41.3354L35.4652 41.4509L35.4523 37.71L53.7847 29.8239L35.5935 29.9009L35.5807 25.9932L64.1348 25.8713L64.1477 29.1053L44.4678 37.5047L64.353 37.4213L64.3594 41.3354ZM33.9957 53.5271C18.1787 53.5913 5.063 46.3404 2.46425 36.8309C4.87691 43.4465 14.4121 48.3424 25.4552 48.2975C33.1038 48.2654 39.8798 46.026 44.2945 42.4391L62.4857 42.3621C57.2497 48.8429 46.3927 53.4758 33.9957 53.5271ZM37.6276 30.9148C37.8008 31.5885 37.8072 32.4355 37.8072 33.2761C37.8137 34.1103 37.8073 34.9829 37.4736 35.8364L34.5925 37.017L34.6053 40.7708C32.4108 42.9845 29.1961 44.3577 25.4423 44.3769C18.6535 44.4155 13.0132 39.5003 12.9876 33.3788C12.9619 27.2637 18.5572 22.1432 25.3461 22.1239C29.0998 22.1111 32.5007 23.6319 34.708 25.9932L34.7272 30.9276L37.6276 30.9148ZM33.8225 12.916C39.7194 12.8904 45.3212 13.8785 50.0759 15.7137L50.0952 20.4492L54.5355 20.4299L54.5227 17.6708C58.2122 19.6856 61.2345 22.1881 63.0889 25.0371L45.2442 25.1141C40.9642 20.8791 33.6685 18.1905 25.3268 18.2226C14.2838 18.2675 4.78066 23.2404 2.42575 30.0549C4.96033 20.3401 18.0118 12.9802 33.8225 12.916ZM33.8225 11.5493C15.1179 11.6263 0.0323318 21.5529 0.0772485 33.4365C0.128582 45.3138 15.2976 54.9644 34.0022 54.8874C52.7067 54.8104 67.9399 45.0507 67.895 33.1478C67.8437 21.2449 52.5014 11.4723 33.8225 11.5493Z" fill="white"/>
<path d="M24.8775 29.4336L28.2783 29.4207L28.3168 39.6168L30.8771 39.604L30.8322 29.4079L34.0405 29.3951L34.0341 26.8477L24.8711 26.8862L24.8775 29.4336Z" fill="white"/>
<path d="M33.9961 65.7572V57.9609H35.0292V65.7572H33.9961ZM36.5114 63.2547L37.4803 63.1648C37.5253 63.5563 37.6343 63.8771 37.8012 64.1273C37.968 64.3776 38.2311 64.5829 38.584 64.7369C38.9369 64.8909 39.3412 64.9679 39.7775 64.9679C40.1753 64.9679 40.5218 64.9102 40.817 64.7947C41.1186 64.6792 41.3432 64.5188 41.4908 64.3134C41.6383 64.1081 41.7089 63.8835 41.7089 63.6461C41.7089 63.4023 41.6383 63.1905 41.4972 63.0044C41.356 62.8248 41.1186 62.6708 40.7913 62.5424C40.586 62.4654 40.1176 62.3371 39.4053 62.1638C38.6867 61.9906 38.1862 61.8302 37.8974 61.6762C37.5253 61.4773 37.2493 61.2398 37.0697 60.9511C36.8836 60.6623 36.7938 60.3351 36.7938 59.9822C36.7938 59.5843 36.9093 59.2186 37.1274 58.8785C37.352 58.532 37.6728 58.2753 38.1028 58.0957C38.5327 57.916 39.0075 57.8262 39.5337 57.8262C40.1112 57.8262 40.6181 57.916 41.0608 58.1021C41.5036 58.2882 41.8437 58.5641 42.0811 58.9234C42.3185 59.2828 42.4468 59.6934 42.4661 60.1554L41.4779 60.2324C41.4266 59.7383 41.2469 59.3662 40.9389 59.1159C40.6309 58.8657 40.1818 58.7373 39.5786 58.7373C38.9562 58.7373 38.5006 58.8528 38.2118 59.0774C37.9295 59.3084 37.7819 59.5843 37.7819 59.9052C37.7819 60.1875 37.8846 60.4185 38.0835 60.5982C38.2824 60.7778 38.8022 60.9639 39.6428 61.1564C40.4833 61.3489 41.0544 61.5093 41.3688 61.6505C41.8244 61.8558 42.1581 62.1253 42.3763 62.4462C42.5944 62.767 42.6971 63.1328 42.6971 63.5498C42.6971 63.9669 42.5752 64.3519 42.3442 64.7177C42.1068 65.0834 41.7667 65.3722 41.3239 65.5711C40.8812 65.7764 40.3807 65.8791 39.8224 65.8791C39.1166 65.8791 38.5263 65.7764 38.0514 65.5711C37.5766 65.3658 37.2044 65.0578 36.9349 64.6407C36.6654 64.2428 36.5243 63.7744 36.5114 63.2547ZM43.8008 61.9649C43.8008 60.6752 44.1473 59.6613 44.8467 58.9298C45.5397 58.1983 46.438 57.8326 47.5417 57.8326C48.2603 57.8326 48.9084 58.0058 49.4859 58.3459C50.0634 58.6924 50.5062 59.1673 50.8078 59.7833C51.1093 60.3993 51.2633 61.0923 51.2633 61.8751C51.2633 62.6643 51.1029 63.3702 50.7821 63.999C50.4613 64.6214 50.0121 65.0963 49.4282 65.4171C48.8443 65.7379 48.209 65.8983 47.5353 65.8983C46.7973 65.8983 46.1428 65.7187 45.5653 65.3658C44.9878 65.0128 44.5451 64.5316 44.2499 63.9156C43.9483 63.2932 43.8008 62.6451 43.8008 61.9649ZM44.8659 61.9778C44.8659 62.9146 45.1162 63.6525 45.6231 64.1915C46.13 64.7305 46.7588 65 47.5224 65C48.2988 65 48.9341 64.7305 49.441 64.1851C49.9415 63.6397 50.1918 62.8697 50.1918 61.8623C50.1918 61.227 50.0827 60.6752 49.8709 60.2003C49.6592 59.7255 49.3448 59.3598 48.9277 59.1031C48.5106 58.8464 48.0486 58.7117 47.5353 58.7117C46.8038 58.7117 46.1749 58.9619 45.6488 59.4624C45.129 59.9758 44.8659 60.8099 44.8659 61.9778ZM55.3764 63.9477L56.294 63.8707C56.371 64.3006 56.5186 64.615 56.7432 64.8075C56.9613 65 57.2437 65.0963 57.5902 65.0963C57.8853 65.0963 58.142 65.0321 58.3666 64.8909C58.5912 64.7562 58.7708 64.5765 58.912 64.3519C59.0532 64.1273 59.1687 63.8193 59.2649 63.4408C59.3612 63.0558 59.4061 62.6708 59.4061 62.2729C59.4061 62.2344 59.4061 62.1638 59.3997 62.0804C59.2072 62.382 58.9505 62.6323 58.6168 62.8248C58.2832 63.0173 57.9303 63.1071 57.5388 63.1071C56.8972 63.1071 56.3518 62.8761 55.9026 62.4077C55.4598 61.9393 55.2353 61.3233 55.2353 60.5597C55.2353 59.7704 55.4663 59.1352 55.9347 58.6475C56.4031 58.1663 56.9806 57.9224 57.6864 57.9224C58.1933 57.9224 58.6553 58.0572 59.0724 58.3331C59.4895 58.609 59.8103 58.994 60.0285 59.5009C60.2467 60.0078 60.3558 60.7393 60.3558 61.6954C60.3558 62.69 60.2467 63.4857 60.0349 64.076C59.8168 64.6663 59.4959 65.1155 59.0724 65.4235C58.6489 65.7315 58.1484 65.8855 57.5709 65.8855C56.9613 65.8855 56.4608 65.7187 56.0758 65.3786C55.6844 65.0385 55.4534 64.5637 55.3764 63.9477ZM59.2842 60.5083C59.2842 59.9565 59.1366 59.5266 58.8478 59.2058C58.5591 58.8849 58.2062 58.7245 57.7955 58.7245C57.3656 58.7245 56.9934 58.8978 56.6854 59.2443C56.371 59.5908 56.217 60.0399 56.217 60.5918C56.217 61.0858 56.3646 61.4901 56.6598 61.7981C56.9549 62.1061 57.3271 62.2665 57.7698 62.2665C58.2126 62.2665 58.5783 62.1125 58.8607 61.7981C59.143 61.4901 59.2842 61.0602 59.2842 60.5083ZM61.2862 61.9072C61.2862 60.9896 61.3824 60.2453 61.5685 59.6806C61.761 59.1159 62.0433 58.6796 62.4155 58.378C62.7877 58.0764 63.2561 57.9224 63.8272 57.9224C64.2443 57.9224 64.61 58.0058 64.9308 58.1727C65.2453 58.3395 65.5083 58.5833 65.7137 58.9042C65.919 59.2186 66.0794 59.61 66.1949 60.0656C66.3104 60.5212 66.3682 61.1372 66.3682 61.9072C66.3682 62.8248 66.2719 63.5627 66.0858 64.1273C65.8998 64.692 65.6174 65.1283 65.2453 65.4299C64.8731 65.7315 64.3983 65.8855 63.8336 65.8855C63.0828 65.8855 62.4925 65.616 62.0626 65.0834C61.5493 64.4353 61.2862 63.3766 61.2862 61.9072ZM62.2679 61.9136C62.2679 63.1969 62.4155 64.0503 62.7171 64.4738C63.0187 64.8973 63.3844 65.1091 63.8272 65.1091C64.2635 65.1091 64.6357 64.8973 64.9373 64.4738C65.2388 64.0503 65.3864 63.1969 65.3864 61.92C65.3864 60.6367 65.2388 59.7833 64.9373 59.3598C64.6421 58.9363 64.2635 58.7245 63.8143 58.7245C63.378 58.7245 63.0251 58.9106 62.762 59.2828C62.4348 59.7576 62.2679 60.6303 62.2679 61.9136ZM67.3499 61.9072C67.3499 60.9896 67.4462 60.2453 67.6323 59.6806C67.8248 59.1159 68.1071 58.6796 68.4793 58.378C68.8514 58.0764 69.3198 57.9224 69.8909 57.9224C70.308 57.9224 70.6738 58.0058 70.9946 58.1727C71.309 58.3395 71.5721 58.5833 71.7774 58.9042C71.9828 59.2186 72.1432 59.61 72.2587 60.0656C72.3742 60.5212 72.4319 61.1372 72.4319 61.9072C72.4319 62.8248 72.3357 63.5627 72.1496 64.1273C71.9635 64.692 71.6812 65.1283 71.309 65.4299C70.9368 65.7315 70.462 65.8855 69.8973 65.8855C69.1466 65.8855 68.5563 65.616 68.1263 65.0834C67.6066 64.4353 67.3499 63.3766 67.3499 61.9072ZM68.3253 61.9136C68.3253 63.1969 68.4728 64.0503 68.7744 64.4738C69.076 64.8973 69.4418 65.1091 69.8845 65.1091C70.3209 65.1091 70.693 64.8973 70.9946 64.4738C71.2962 64.0503 71.4438 63.1969 71.4438 61.92C71.4438 60.6367 71.2962 59.7833 70.9946 59.3598C70.6994 58.9363 70.3208 58.7245 69.8717 58.7245C69.4353 58.7245 69.0824 58.9106 68.8193 59.2828C68.4921 59.7576 68.3253 60.6303 68.3253 61.9136ZM77.0006 65.7572H76.0445V59.6549C75.8135 59.8731 75.5119 60.0977 75.1398 60.3158C74.7676 60.534 74.4275 60.7008 74.1323 60.8099V59.8859C74.6713 59.6357 75.1398 59.3341 75.5376 58.9683C75.9418 58.609 76.2242 58.2625 76.391 57.9288H77.0006V65.7572Z" fill="white"/>
</g>
<defs>
<clipPath id="clip0_3022_592">
<rect width="77" height="77" fill="white"/>
</clipPath>
</defs>
</svg>