<svg width="15" height="16" viewBox="0 0 15 16" fill="none" xmlns="http://www.w3.org/2000/svg">
<path d="M11.875 6.75H12.5C12.8452 6.75 13.125 7.02981 13.125 7.375V13.625C13.125 13.9702 12.8452 14.25 12.5 14.25H2.5C2.15483 14.25 1.875 13.9702 1.875 13.625V7.375C1.875 7.02981 2.15483 6.75 2.5 6.75H3.125V6.125C3.125 3.70876 5.08376 1.75 7.5 1.75C9.91625 1.75 11.875 3.70876 11.875 6.125V6.75ZM10.625 6.75V6.125C10.625 4.39911 9.22587 3 7.5 3C5.77411 3 4.375 4.39911 4.375 6.125V6.75H10.625ZM6.875 9.25V11.75H8.125V9.25H6.875Z" fill="#64748B"/>
</svg>
