<svg width="16" height="16" viewBox="0 0 16 16" fill="none" xmlns="http://www.w3.org/2000/svg">
<path d="M8.00001 14.25C4.54822 14.25 1.75 11.4517 1.75 8C1.75 4.54822 4.54822 1.75 8.00001 1.75C11.4518 1.75 14.25 4.54822 14.25 8C14.25 11.4517 11.4518 14.25 8.00001 14.25ZM6.05634 8.73175L6.06425 8.72675C6.42658 9.92294 6.60774 10.5211 6.60774 10.5211C6.67791 10.7151 6.77439 10.7498 6.89145 10.7339C7.00845 10.7181 7.07058 10.6547 7.14695 10.5811C7.14695 10.5811 7.39464 10.342 7.89001 9.86394L9.48432 11.0436C9.77483 11.2041 9.98458 11.1213 10.0567 10.7736L11.0928 5.88526C11.2072 5.43026 11.0066 5.24777 10.6538 5.39221L4.57062 7.74194C4.15561 7.90875 4.15762 8.14094 4.49506 8.24444L6.05634 8.73175Z" fill="#4AA3E2"/>
</svg>
