<svg width="76" height="76" viewBox="0 0 76 76" fill="none" xmlns="http://www.w3.org/2000/svg">
<rect width="76" height="76" rx="5" fill="url(#paint0_linear_2807_387)"/>
<path d="M35.9167 27.5833V21.3333C35.9167 20.1827 36.8494 19.25 38 19.25H56.75C57.9006 19.25 58.8333 20.1827 58.8333 21.3333V54.6667C58.8333 55.8173 57.9006 56.75 56.75 56.75H19.25C18.0994 56.75 17.1667 55.8173 17.1667 54.6667V29.6667C17.1667 28.5161 18.0994 27.5833 19.25 27.5833H35.9167ZM23.4167 46.3333V50.5H33.8333V46.3333H23.4167ZM42.1667 46.3333V50.5H52.5833V46.3333H42.1667ZM42.1667 40.0833V44.25H52.5833V40.0833H42.1667ZM42.1667 33.8333V38H52.5833V33.8333H42.1667ZM23.4167 40.0833V44.25H33.8333V40.0833H23.4167Z" fill="white"/>
<defs>
<linearGradient id="paint0_linear_2807_387" x1="-15.9793" y1="31.1255" x2="56.2597" y2="79.9481" gradientUnits="userSpaceOnUse">
<stop stop-color="#11F843"/>
<stop offset="1" stop-color="#3DB81F"/>
</linearGradient>
</defs>
</svg>
