<svg width="74" height="76" viewBox="0 0 74 76" fill="none" xmlns="http://www.w3.org/2000/svg">
<rect width="74" height="76" rx="5" fill="url(#paint0_linear_2807_378)"/>
<path d="M57.8334 48.4211C57.8313 54.4021 53.6284 59.4011 48.015 60.6282L46.6859 56.6407C49.1942 56.2313 51.3261 54.7021 52.5519 52.5832H47.4167C45.1154 52.5832 43.25 50.7178 43.25 48.4165V40.0832C43.25 37.7819 45.1154 35.9165 47.4167 35.9165H53.5377C52.5125 27.695 45.4992 21.3332 37 21.3332C28.5008 21.3332 21.4875 27.695 20.4623 35.9165H26.5834C28.8845 35.9165 30.75 37.7819 30.75 40.0832V48.4165C30.75 50.7178 28.8845 52.5832 26.5834 52.5832H20.3334C18.0322 52.5832 16.1667 50.7178 16.1667 48.4165V37.9998C16.1667 26.4939 25.4941 17.1665 37 17.1665C48.5059 17.1665 57.8334 26.4939 57.8334 37.9998V40.0805V40.0832V48.4165V48.4211Z" fill="white"/>
<defs>
<linearGradient id="paint0_linear_2807_378" x1="19.951" y1="12.4231" x2="73.4319" y2="14.2346" gradientUnits="userSpaceOnUse">
<stop stop-color="#BC6CFB"/>
<stop offset="1" stop-color="#770CFF"/>
</linearGradient>
</defs>
</svg>
