<svg width="76" height="76" viewBox="0 0 76 76" fill="none" xmlns="http://www.w3.org/2000/svg">
<rect width="76" height="76" rx="5" fill="url(#paint0_linear_2807_331)"/>
<path d="M29.0265 32.332H18.6376C16.8148 32.332 15.332 30.8493 15.332 29.0265V18.6376C15.332 16.8148 16.8148 15.332 18.6376 15.332H29.0265C30.8493 15.332 32.332 16.8148 32.332 18.6376V29.0265C32.332 30.8493 30.8493 32.332 29.0265 32.332ZM18.6376 18.1654C18.3769 18.1654 18.1654 18.3769 18.1654 18.6376V29.0265C18.1654 29.2871 18.3769 29.4987 18.6376 29.4987H29.0265C29.2871 29.4987 29.4987 29.2871 29.4987 29.0265V18.6376C29.4987 18.3769 29.2871 18.1654 29.0265 18.1654H18.6376Z" fill="white"/>
<path d="M57.3585 32.332H46.9696C45.1468 32.332 43.6641 30.8493 43.6641 29.0265V18.6376C43.6641 16.8148 45.1468 15.332 46.9696 15.332H57.3585C59.1813 15.332 60.6641 16.8148 60.6641 18.6376V29.0265C60.6641 30.8493 59.1813 32.332 57.3585 32.332ZM46.9696 18.1654C46.709 18.1654 46.4974 18.3769 46.4974 18.6376V29.0265C46.4974 29.2871 46.709 29.4987 46.9696 29.4987H57.3585C57.6192 29.4987 57.8307 29.2871 57.8307 29.0265V18.6376C57.8307 18.3769 57.6192 18.1654 57.3585 18.1654H46.9696Z" fill="white"/>
<path d="M29.0265 60.665H18.6376C16.8148 60.665 15.332 59.1823 15.332 57.3595V46.9706C15.332 45.1478 16.8148 43.665 18.6376 43.665H29.0265C30.8493 43.665 32.332 45.1478 32.332 46.9706V57.3595C32.332 59.1823 30.8493 60.665 29.0265 60.665ZM18.6376 46.4984C18.3769 46.4984 18.1654 46.7099 18.1654 46.9706V57.3595C18.1654 57.6201 18.3769 57.8317 18.6376 57.8317H29.0265C29.2871 57.8317 29.4987 57.6201 29.4987 57.3595V46.9706C29.4987 46.7099 29.2871 46.4984 29.0265 46.4984H18.6376Z" fill="white"/>
<path d="M57.3585 60.6641H46.9696C45.1468 60.6641 43.6641 59.1813 43.6641 57.3585V46.9696C43.6641 45.1468 45.1468 43.6641 46.9696 43.6641H57.3585C59.1813 43.6641 60.6641 45.1468 60.6641 46.9696V57.3585C60.6641 59.1813 59.1813 60.6641 57.3585 60.6641ZM46.9696 46.4974C46.709 46.4974 46.4974 46.709 46.4974 46.9696V57.3585C46.4974 57.6192 46.709 57.8307 46.9696 57.8307H57.3585C57.6192 57.8307 57.8307 57.6192 57.8307 57.3585V46.9696C57.8307 46.709 57.6192 46.4974 57.3585 46.4974H46.9696Z" fill="white"/>
<path d="M23.832 22.415H44.6098V25.2484H23.832V22.415Z" fill="white"/>
<path d="M31.3867 50.75H52.1645V53.5833H31.3867V50.75Z" fill="white"/>
<path d="M50.75 23.832H53.5833V44.6098H50.75V23.832Z" fill="white"/>
<path d="M22.4141 31.3887H25.2474V52.1664H22.4141V31.3887Z" fill="white"/>
<defs>
<linearGradient id="paint0_linear_2807_331" x1="-15.9793" y1="31.1255" x2="56.2597" y2="79.9481" gradientUnits="userSpaceOnUse">
<stop stop-color="#FCD546"/>
<stop offset="1" stop-color="#FF843E"/>
</linearGradient>
</defs>
</svg>
