<svg width="20" height="20" viewBox="0 0 20 20" fill="none" xmlns="http://www.w3.org/2000/svg">
<g clip-path="url(#clip0_3022_556)">
<path d="M9.99967 15.0002C7.23825 15.0002 4.99967 12.7616 4.99967 10.0002C4.99967 7.23874 7.23825 5.00016 9.99967 5.00016C12.7611 5.00016 14.9997 7.23874 14.9997 10.0002C14.9997 12.7616 12.7611 15.0002 9.99967 15.0002ZM9.16634 0.833496H10.833V3.3335H9.16634V0.833496ZM9.16634 16.6668H10.833V19.1668H9.16634V16.6668ZM2.92861 4.1076L4.10712 2.9291L5.87488 4.69686L4.69637 5.87537L2.92861 4.1076ZM14.1244 15.3035L15.303 14.1249L17.0708 15.8927L15.8923 17.0712L14.1244 15.3035ZM15.8923 2.9291L17.0708 4.1076L15.303 5.87537L14.1244 4.69686L15.8923 2.9291ZM4.69637 14.1249L5.87488 15.3035L4.10712 17.0712L2.92861 15.8927L4.69637 14.1249ZM19.1663 9.16683V10.8335H16.6663V9.16683H19.1663ZM3.33301 9.16683V10.8335H0.833008V9.16683H3.33301Z" fill="white"/>
</g>
<defs>
<clipPath id="clip0_3022_556">
<rect width="20" height="20" fill="white"/>
</clipPath>
</defs>
</svg>
